<svg width="15" height="16" viewBox="0 0 15 16" fill="none" xmlns="http://www.w3.org/2000/svg">
<path d="M8.23138 15.1093C7.28452 15.1093 6.33736 14.9248 5.43502 14.5545C3.61336 13.8074 2.1913 12.3947 1.43074 10.5771C0.670176 8.75893 0.662856 6.75445 1.40992 4.93279C2.15728 3.11113 3.56968 1.68907 5.38786 0.92905C6.70096 0.37945 8.12038 0.21829 9.49204 0.46501C9.6157 0.48727 9.71266 0.58453 9.73432 0.70819C9.75628 0.83185 9.69856 0.95665 9.5899 1.01989C7.12426 2.45425 6.09712 5.52517 7.20076 8.16307C8.3041 10.801 11.2109 12.226 13.9648 11.4777C14.0855 11.4449 14.2156 11.4906 14.2883 11.5938C14.3609 11.6963 14.3621 11.8334 14.2909 11.9371C13.502 13.0873 12.3913 13.985 11.0791 14.5334C10.1615 14.9178 9.19642 15.1093 8.23138 15.1093ZM8.22958 0.95311C7.34452 0.95311 6.45856 1.13125 5.61922 1.48219C3.949 2.18065 2.65144 3.48727 1.96504 5.16073C1.27888 6.83419 1.28566 8.67517 1.98436 10.3451C2.68282 12.0156 3.98914 13.3129 5.6626 13.9996C7.33606 14.6863 9.17734 14.6793 10.8476 13.9803C11.8041 13.5801 12.6435 12.9789 13.3109 12.2207C10.525 12.5974 7.75822 11.0512 6.64702 8.39509C5.53576 5.73847 6.38074 2.68393 8.6017 0.963671C8.47774 0.956591 8.35354 0.95311 8.22958 0.95311Z" fill="#231F20"/>
</svg>
